<svg width="700" height="700" viewBox="0 0 700 700" fill="none" xmlns="http://www.w3.org/2000/svg">
<rect x="213.292" y="257.348" width="147.843" height="76.4157" stroke="white" stroke-width="6" stroke-linejoin="round"/>
<rect x="339.663" y="257.348" width="147.843" height="76.4157" stroke="white" stroke-width="6" stroke-linejoin="round"/>
<path d="M395.059 217.237C389.531 224.464 382.834 231.043 379.873 239.407C374.938 230.539 365.644 228.322 349.127 228.322C334.322 228.322 322.899 235.393 320.925 239.407C317.964 231.043 311.266 224.464 305.739 217.237C295.869 226.271 279.09 251.363 289.947 285.489C209.218 323.655 121.611 257.144 127.086 188.416C34.0031 221.671 -37.1782 423.421 39.4785 487.715C77.8068 399.034 187.316 425.638 209.218 496.583C289.947 438.94 336.296 508.31 349.127 567.528C360.168 516.536 398.496 432.289 491.58 496.583C513.481 425.638 622.991 399.034 661.319 487.715C737.976 423.421 666.795 221.671 573.711 188.416C579.187 257.144 491.58 323.655 410.851 285.489C421.708 251.363 404.929 226.271 395.059 217.237Z" fill="black" stroke="white" stroke-width="6"/>
<rect x="216.286" y="260.343" width="129.974" height="71.7634" fill="black" stroke="black" stroke-linejoin="round"/>
<rect x="226.063" y="270.119" width="113.846" height="53.9228" stroke="white" stroke-width="6"/>
<path d="M295.47 322.048L268.005 272.112H307.954L332.921 322.048H295.47Z" fill="white"/>
<rect x="354.537" y="260.343" width="129.974" height="71.7634" fill="black" stroke="black" stroke-linejoin="round"/>
<rect x="360.889" y="270.119" width="113.846" height="53.9228" stroke="white" stroke-width="6" stroke-linejoin="round"/>
<path d="M430.296 322.048L402.831 272.112H442.78L467.748 322.048H430.296Z" fill="white"/>
<mask id="path-10-outside-1_1_2" maskUnits="userSpaceOnUse" x="129.899" y="99" width="443" height="107" fill="black">
<rect fill="white" x="129.899" y="99" width="443" height="107"/>
<path d="M175.24 198H147.208C142.942 198 140.083 197.701 138.632 197.104C137.182 196.507 136.456 195.568 136.456 194.288V111.984C136.456 107.888 148.787 105.84 173.448 105.84C187.614 105.84 197.384 107.205 202.76 109.936C208.222 112.752 211.72 116.336 213.256 120.688C214.11 123.248 214.536 126.235 214.536 129.648C214.536 136.304 213.384 141.296 211.08 144.624C208.862 147.952 206.43 149.829 203.784 150.256C207.795 151.109 211.123 153.072 213.768 156.144C216.414 159.216 217.736 164.421 217.736 171.76C217.736 180.293 215.134 186.608 209.928 190.704C205.406 194.288 198.494 196.549 189.192 197.488C185.267 197.829 180.616 198 175.24 198ZM175.368 142.192C179.72 142.192 181.896 139.291 181.896 133.488C181.896 130.587 181.299 128.453 180.104 127.088C178.995 125.637 177.715 124.912 176.264 124.912H172.168V142.192H175.368ZM172.168 178.928H175.368C179.72 178.928 181.896 176.027 181.896 170.224C181.896 167.323 181.299 165.189 180.104 163.824C178.995 162.373 177.715 161.648 176.264 161.648H172.168V178.928ZM290.784 191.472C290.614 193.947 289.291 195.653 286.816 196.592C284.427 197.531 280.075 198 273.76 198C267.446 198 262.155 197.445 257.888 196.336C253.707 195.141 251.616 193.648 251.616 191.856C251.616 189.808 255.414 176.752 263.008 152.688C270.603 128.539 274.955 114.629 276.064 110.96C276.491 109.851 279.904 108.955 286.304 108.272C292.79 107.504 299.702 107.12 307.04 107.12C314.464 107.12 318.56 108.4 319.328 110.96C335.456 164.549 343.52 191.771 343.52 192.624C343.52 193.477 343.008 194.331 341.984 195.184C339.595 197.061 334.859 198 327.776 198C312.672 198 304.95 196.208 304.608 192.624L303.712 184.304H291.424L290.784 191.472ZM301.024 159.984L299.104 136.944H296.288L294.112 159.984H301.024ZM433.106 194.928C433.106 195.867 430.461 196.635 425.17 197.232C419.965 197.744 414.717 198 409.426 198C404.221 198 400.893 197.787 399.442 197.36C398.077 196.848 397.394 196.037 397.394 194.928V139.888H379.602C378.664 139.888 377.853 138.693 377.17 136.304C376.488 133.915 376.146 130.373 376.146 125.68C376.146 120.901 376.658 116.635 377.682 112.88C378.706 109.04 380.072 107.12 381.778 107.12H451.026C452.306 107.12 453.16 108.315 453.586 110.704C454.098 113.093 454.354 116.549 454.354 121.072C454.354 125.595 453.885 129.861 452.946 133.872C452.008 137.883 450.728 139.888 449.106 139.888H433.106V194.928ZM555.983 192.624C553.423 194.501 549.839 196.08 545.231 197.36C540.709 198.555 534.821 199.152 527.567 199.152C520.399 199.152 513.573 198.555 507.087 197.36C500.602 196.165 495.951 194.843 493.135 193.392C490.319 191.941 488.911 190.533 488.911 189.168C488.911 184.389 489.594 179.44 490.959 174.32C492.325 169.115 493.946 166.512 495.823 166.512C496.165 166.512 499.706 167.664 506.447 169.968C513.189 172.272 518.266 173.424 521.679 173.424C525.093 173.424 527.311 173.083 528.335 172.4C529.359 171.632 529.871 170.565 529.871 169.2C529.871 167.835 528.933 166.64 527.055 165.616C525.178 164.507 522.831 163.568 520.015 162.8C517.199 161.947 514.127 160.752 510.799 159.216C507.557 157.68 504.527 155.973 501.711 154.096C498.895 152.219 496.549 149.573 494.671 146.16C492.794 142.661 491.855 138.693 491.855 134.256C491.855 115.312 503.162 105.84 525.775 105.84C534.223 105.84 541.519 106.395 547.663 107.504C553.807 108.528 558.117 109.723 560.591 111.088C563.151 112.368 564.431 113.648 564.431 114.928C564.431 119.365 563.365 124.144 561.231 129.264C559.183 134.384 557.178 136.944 555.215 136.944C554.874 136.944 553.765 136.56 551.887 135.792C546.255 133.317 541.562 132.08 537.807 132.08C534.138 132.08 531.621 132.421 530.255 133.104C528.975 133.787 528.335 134.853 528.335 136.304C528.335 137.669 529.274 138.821 531.151 139.76C533.029 140.613 535.333 141.424 538.063 142.192C540.879 142.875 543.909 143.984 547.151 145.52C550.479 146.971 553.551 148.72 556.367 150.768C559.183 152.731 561.53 155.547 563.407 159.216C565.285 162.885 566.223 167.152 566.223 172.016C566.223 177.136 564.901 181.787 562.255 185.968C560.634 188.528 558.543 190.747 555.983 192.624Z"/>
</mask>
<path d="M175.24 198H147.208C142.942 198 140.083 197.701 138.632 197.104C137.182 196.507 136.456 195.568 136.456 194.288V111.984C136.456 107.888 148.787 105.84 173.448 105.84C187.614 105.84 197.384 107.205 202.76 109.936C208.222 112.752 211.72 116.336 213.256 120.688C214.11 123.248 214.536 126.235 214.536 129.648C214.536 136.304 213.384 141.296 211.08 144.624C208.862 147.952 206.43 149.829 203.784 150.256C207.795 151.109 211.123 153.072 213.768 156.144C216.414 159.216 217.736 164.421 217.736 171.76C217.736 180.293 215.134 186.608 209.928 190.704C205.406 194.288 198.494 196.549 189.192 197.488C185.267 197.829 180.616 198 175.24 198ZM175.368 142.192C179.72 142.192 181.896 139.291 181.896 133.488C181.896 130.587 181.299 128.453 180.104 127.088C178.995 125.637 177.715 124.912 176.264 124.912H172.168V142.192H175.368ZM172.168 178.928H175.368C179.72 178.928 181.896 176.027 181.896 170.224C181.896 167.323 181.299 165.189 180.104 163.824C178.995 162.373 177.715 161.648 176.264 161.648H172.168V178.928ZM290.784 191.472C290.614 193.947 289.291 195.653 286.816 196.592C284.427 197.531 280.075 198 273.76 198C267.446 198 262.155 197.445 257.888 196.336C253.707 195.141 251.616 193.648 251.616 191.856C251.616 189.808 255.414 176.752 263.008 152.688C270.603 128.539 274.955 114.629 276.064 110.96C276.491 109.851 279.904 108.955 286.304 108.272C292.79 107.504 299.702 107.12 307.04 107.12C314.464 107.12 318.56 108.4 319.328 110.96C335.456 164.549 343.52 191.771 343.52 192.624C343.52 193.477 343.008 194.331 341.984 195.184C339.595 197.061 334.859 198 327.776 198C312.672 198 304.95 196.208 304.608 192.624L303.712 184.304H291.424L290.784 191.472ZM301.024 159.984L299.104 136.944H296.288L294.112 159.984H301.024ZM433.106 194.928C433.106 195.867 430.461 196.635 425.17 197.232C419.965 197.744 414.717 198 409.426 198C404.221 198 400.893 197.787 399.442 197.36C398.077 196.848 397.394 196.037 397.394 194.928V139.888H379.602C378.664 139.888 377.853 138.693 377.17 136.304C376.488 133.915 376.146 130.373 376.146 125.68C376.146 120.901 376.658 116.635 377.682 112.88C378.706 109.04 380.072 107.12 381.778 107.12H451.026C452.306 107.12 453.16 108.315 453.586 110.704C454.098 113.093 454.354 116.549 454.354 121.072C454.354 125.595 453.885 129.861 452.946 133.872C452.008 137.883 450.728 139.888 449.106 139.888H433.106V194.928ZM555.983 192.624C553.423 194.501 549.839 196.08 545.231 197.36C540.709 198.555 534.821 199.152 527.567 199.152C520.399 199.152 513.573 198.555 507.087 197.36C500.602 196.165 495.951 194.843 493.135 193.392C490.319 191.941 488.911 190.533 488.911 189.168C488.911 184.389 489.594 179.44 490.959 174.32C492.325 169.115 493.946 166.512 495.823 166.512C496.165 166.512 499.706 167.664 506.447 169.968C513.189 172.272 518.266 173.424 521.679 173.424C525.093 173.424 527.311 173.083 528.335 172.4C529.359 171.632 529.871 170.565 529.871 169.2C529.871 167.835 528.933 166.64 527.055 165.616C525.178 164.507 522.831 163.568 520.015 162.8C517.199 161.947 514.127 160.752 510.799 159.216C507.557 157.68 504.527 155.973 501.711 154.096C498.895 152.219 496.549 149.573 494.671 146.16C492.794 142.661 491.855 138.693 491.855 134.256C491.855 115.312 503.162 105.84 525.775 105.84C534.223 105.84 541.519 106.395 547.663 107.504C553.807 108.528 558.117 109.723 560.591 111.088C563.151 112.368 564.431 113.648 564.431 114.928C564.431 119.365 563.365 124.144 561.231 129.264C559.183 134.384 557.178 136.944 555.215 136.944C554.874 136.944 553.765 136.56 551.887 135.792C546.255 133.317 541.562 132.08 537.807 132.08C534.138 132.08 531.621 132.421 530.255 133.104C528.975 133.787 528.335 134.853 528.335 136.304C528.335 137.669 529.274 138.821 531.151 139.76C533.029 140.613 535.333 141.424 538.063 142.192C540.879 142.875 543.909 143.984 547.151 145.52C550.479 146.971 553.551 148.72 556.367 150.768C559.183 152.731 561.53 155.547 563.407 159.216C565.285 162.885 566.223 167.152 566.223 172.016C566.223 177.136 564.901 181.787 562.255 185.968C560.634 188.528 558.543 190.747 555.983 192.624Z" fill="black"/>
<path d="M138.632 197.104L140.917 191.556L140.917 191.556L138.632 197.104ZM202.76 109.936L205.51 104.603L205.494 104.595L205.478 104.587L202.76 109.936ZM213.256 120.688L218.948 118.791L218.932 118.741L218.914 118.691L213.256 120.688ZM211.08 144.624L206.147 141.209L206.117 141.252L206.088 141.296L211.08 144.624ZM203.784 150.256L202.829 144.333L202.536 156.125L203.784 150.256ZM213.768 156.144L218.315 152.229L218.315 152.229L213.768 156.144ZM209.928 190.704L206.218 185.989L206.21 185.995L206.202 186.002L209.928 190.704ZM189.192 197.488L189.712 203.465L189.753 203.462L189.795 203.458L189.192 197.488ZM180.104 127.088L175.338 130.733L175.458 130.89L175.589 131.039L180.104 127.088ZM172.168 124.912V118.912H166.168V124.912H172.168ZM172.168 142.192H166.168V148.192H172.168V142.192ZM172.168 178.928H166.168V184.928H172.168V178.928ZM180.104 163.824L175.338 167.469L175.458 167.626L175.589 167.775L180.104 163.824ZM172.168 161.648V155.648H166.168V161.648H172.168ZM175.24 192H147.208V204H175.24V192ZM147.208 192C145.194 192 143.637 191.929 142.488 191.808C141.239 191.678 140.841 191.525 140.917 191.556L136.348 202.652C137.874 203.28 139.631 203.575 141.241 203.744C142.95 203.922 144.956 204 147.208 204V192ZM140.917 191.556C140.859 191.532 141.294 191.695 141.748 192.283C142.263 192.95 142.456 193.712 142.456 194.288H130.456C130.456 196.144 131.012 198.016 132.253 199.621C133.432 201.147 134.955 202.078 136.348 202.652L140.917 191.556ZM142.456 194.288V111.984H130.456V194.288H142.456ZM142.456 111.984C142.456 114.513 140.465 115.154 141.444 114.666C142.183 114.298 143.797 113.775 146.687 113.295C152.349 112.355 161.195 111.84 173.448 111.84V99.84C161.04 99.84 151.39 100.349 144.721 101.457C141.446 102.001 138.436 102.758 136.092 103.926C133.989 104.974 130.456 107.407 130.456 111.984H142.456ZM173.448 111.84C187.618 111.84 196.072 113.268 200.043 115.285L205.478 104.587C198.697 101.142 187.61 99.84 173.448 99.84V111.84ZM200.011 115.269C204.574 117.622 206.721 120.199 207.598 122.685L218.914 118.691C216.72 112.473 211.869 107.882 205.51 104.603L200.011 115.269ZM207.564 122.585C208.168 124.396 208.536 126.717 208.536 129.648H220.536C220.536 125.753 220.051 122.1 218.948 118.791L207.564 122.585ZM208.536 129.648C208.536 135.797 207.438 139.344 206.147 141.209L216.013 148.039C219.33 143.248 220.536 136.811 220.536 129.648H208.536ZM206.088 141.296C204.338 143.92 203.159 144.279 202.829 144.333L204.74 156.179C209.701 155.379 213.385 151.984 216.073 147.952L206.088 141.296ZM202.536 156.125C205.279 156.708 207.443 157.994 209.222 160.059L218.315 152.229C214.803 148.15 210.311 145.51 205.033 144.387L202.536 156.125ZM209.222 160.059C210.422 161.453 211.736 164.82 211.736 171.76H223.736C223.736 164.023 222.405 156.979 218.315 152.229L209.222 160.059ZM211.736 171.76C211.736 179.031 209.578 183.345 206.218 185.989L213.639 195.419C220.69 189.871 223.736 181.556 223.736 171.76H211.736ZM206.202 186.002C202.976 188.558 197.391 190.63 188.59 191.518L189.795 203.458C199.596 202.469 207.835 200.018 213.655 195.406L206.202 186.002ZM188.673 191.511C184.969 191.833 180.501 192 175.24 192V204C180.732 204 185.565 203.826 189.712 203.465L188.673 191.511ZM175.368 148.192C179.008 148.192 182.611 146.888 185.064 143.616C187.275 140.669 187.896 136.966 187.896 133.488H175.896C175.896 134.583 175.792 135.344 175.667 135.841C175.545 136.331 175.429 136.463 175.464 136.416C175.525 136.336 175.653 136.225 175.788 136.165C175.887 136.121 175.796 136.192 175.368 136.192V148.192ZM187.896 133.488C187.896 129.956 187.201 126.087 184.62 123.137L175.589 131.039C175.481 130.916 175.561 130.938 175.671 131.33C175.784 131.736 175.896 132.426 175.896 133.488H187.896ZM184.87 123.443C182.95 120.932 180.06 118.912 176.264 118.912V130.912C176.121 130.912 175.955 130.893 175.78 130.847C175.606 130.801 175.462 130.737 175.354 130.676C175.144 130.557 175.159 130.499 175.338 130.733L184.87 123.443ZM176.264 118.912H172.168V130.912H176.264V118.912ZM166.168 124.912V142.192H178.168V124.912H166.168ZM172.168 148.192H175.368V136.192H172.168V148.192ZM172.168 184.928H175.368V172.928H172.168V184.928ZM175.368 184.928C179.008 184.928 182.611 183.624 185.064 180.352C187.275 177.405 187.896 173.702 187.896 170.224H175.896C175.896 171.319 175.792 172.08 175.667 172.577C175.545 173.067 175.429 173.199 175.464 173.152C175.525 173.072 175.653 172.961 175.788 172.901C175.887 172.857 175.796 172.928 175.368 172.928V184.928ZM187.896 170.224C187.896 166.692 187.201 162.823 184.62 159.873L175.589 167.775C175.481 167.652 175.561 167.674 175.671 168.066C175.784 168.472 175.896 169.162 175.896 170.224H187.896ZM184.87 160.179C182.95 157.668 180.06 155.648 176.264 155.648V167.648C176.121 167.648 175.955 167.629 175.78 167.583C175.606 167.537 175.462 167.473 175.354 167.412C175.144 167.293 175.159 167.235 175.338 167.469L184.87 160.179ZM176.264 155.648H172.168V167.648H176.264V155.648ZM166.168 161.648V178.928H178.168V161.648H166.168ZM290.784 191.472L284.808 190.938L284.803 190.999L284.799 191.059L290.784 191.472ZM286.816 196.592L284.688 190.982L284.655 190.995L284.622 191.007L286.816 196.592ZM257.888 196.336L256.24 202.105L256.309 202.125L256.379 202.143L257.888 196.336ZM263.008 152.688L268.73 154.494L268.732 154.488L263.008 152.688ZM276.064 110.96L270.464 108.806L270.385 109.012L270.321 109.224L276.064 110.96ZM286.304 108.272L286.941 114.238L286.975 114.234L287.01 114.23L286.304 108.272ZM319.328 110.96L313.581 112.684L313.583 112.689L319.328 110.96ZM341.984 195.184L345.691 199.902L345.759 199.849L345.825 199.793L341.984 195.184ZM304.608 192.624L310.581 192.055L310.578 192.018L310.574 191.982L304.608 192.624ZM303.712 184.304L309.678 183.662L309.101 178.304H303.712V184.304ZM291.424 184.304V178.304H285.936L285.448 183.77L291.424 184.304ZM301.024 159.984V165.984H307.545L307.004 159.486L301.024 159.984ZM299.104 136.944L305.084 136.446L304.625 130.944H299.104V136.944ZM296.288 136.944V130.944H290.828L290.315 136.38L296.288 136.944ZM294.112 159.984L288.139 159.42L287.519 165.984H294.112V159.984ZM284.799 191.059C284.789 191.193 284.772 191.217 284.79 191.166C284.799 191.141 284.814 191.105 284.838 191.061C284.862 191.017 284.89 190.973 284.922 190.933C284.953 190.892 284.982 190.862 285.004 190.841C285.025 190.821 285.035 190.815 285.027 190.821C285.009 190.833 284.911 190.898 284.688 190.982L288.944 202.202C290.981 201.429 292.931 200.188 294.407 198.283C295.901 196.355 296.615 194.127 296.77 191.885L284.799 191.059ZM284.622 191.007C283.408 191.484 280.109 192 273.76 192V204C280.041 204 285.446 203.577 289.01 202.177L284.622 191.007ZM273.76 192C267.756 192 263.01 191.468 259.398 190.529L256.379 202.143C261.3 203.422 267.136 204 273.76 204V192ZM259.537 190.567C258.672 190.32 258.006 190.083 257.508 189.869C257 189.651 256.751 189.494 256.672 189.438C256.586 189.376 256.809 189.512 257.07 189.923C257.366 190.388 257.616 191.064 257.616 191.856H245.616C245.616 195.438 247.803 197.85 249.697 199.202C251.556 200.53 253.881 201.431 256.24 202.105L259.537 190.567ZM257.616 191.856C257.616 192.247 257.562 192.334 257.68 191.736C257.771 191.277 257.922 190.614 258.147 189.719C258.596 187.936 259.284 185.441 260.226 182.204C262.105 175.741 264.937 166.512 268.73 154.494L257.287 150.882C253.485 162.928 250.621 172.259 248.703 178.852C247.746 182.143 247.01 184.8 246.509 186.793C246.26 187.786 246.055 188.667 245.908 189.408C245.789 190.01 245.616 190.953 245.616 191.856H257.616ZM268.732 154.488C276.32 130.36 280.686 116.407 281.808 112.696L270.321 109.224C269.224 112.852 264.886 126.717 257.285 150.888L268.732 154.488ZM281.664 113.114C281.285 114.099 280.713 114.712 280.378 115.014C280.041 115.317 279.775 115.458 279.722 115.486C279.634 115.532 279.814 115.431 280.468 115.259C281.738 114.926 283.839 114.569 286.941 114.238L285.668 102.306C282.37 102.658 279.564 103.09 277.421 103.653C276.368 103.929 275.215 104.302 274.167 104.85C273.342 105.28 271.382 106.419 270.464 108.806L281.664 113.114ZM287.01 114.23C293.235 113.493 299.909 113.12 307.04 113.12V101.12C299.494 101.12 292.345 101.515 285.599 102.314L287.01 114.23ZM307.04 113.12C310.519 113.12 312.695 113.433 313.891 113.807C315.219 114.222 314.052 114.253 313.581 112.684L325.075 109.236C323.837 105.107 320.238 103.218 317.47 102.353C314.57 101.447 310.985 101.12 307.04 101.12V113.12ZM313.583 112.689C321.646 139.482 327.691 159.674 331.719 173.272C333.734 180.073 335.241 185.212 336.242 188.696C336.743 190.443 337.111 191.75 337.351 192.636C337.472 193.084 337.551 193.388 337.595 193.571C337.619 193.668 337.622 193.685 337.615 193.652C337.612 193.637 337.597 193.564 337.581 193.456C337.575 193.415 337.52 193.074 337.52 192.624H349.52C349.52 192.147 349.462 191.766 349.448 191.673C349.424 191.513 349.397 191.375 349.379 191.282C349.34 191.092 349.296 190.901 349.256 190.739C349.175 190.404 349.064 189.982 348.934 189.5C348.67 188.524 348.282 187.147 347.775 185.384C346.76 181.85 345.242 176.673 343.225 169.864C339.189 156.24 333.138 136.028 325.074 109.231L313.583 112.689ZM337.52 192.624C337.52 191.794 337.782 191.166 337.991 190.817C338.177 190.508 338.303 190.442 338.143 190.575L345.825 199.793C347.448 198.441 349.52 196.062 349.52 192.624H337.52ZM338.277 190.466C338.138 190.576 337.404 191.028 335.474 191.41C333.623 191.777 331.089 192 327.776 192V204C331.546 204 334.922 203.753 337.807 203.182C340.613 202.625 343.442 201.67 345.691 199.902L338.277 190.466ZM327.776 192C320.349 192 315.193 191.549 312.013 190.811C310.396 190.436 309.723 190.081 309.577 189.984C309.517 189.944 310.441 190.582 310.581 192.055L298.635 193.193C298.946 196.458 300.964 198.664 302.92 199.968C304.79 201.215 307.056 201.98 309.3 202.501C313.842 203.555 320.1 204 327.776 204V192ZM310.574 191.982L309.678 183.662L297.747 184.946L298.643 193.266L310.574 191.982ZM303.712 178.304H291.424V190.304H303.712V178.304ZM285.448 183.77L284.808 190.938L296.761 192.006L297.401 184.838L285.448 183.77ZM307.004 159.486L305.084 136.446L293.125 137.442L295.045 160.482L307.004 159.486ZM299.104 130.944H296.288V142.944H299.104V130.944ZM290.315 136.38L288.139 159.42L300.086 160.548L302.262 137.508L290.315 136.38ZM294.112 165.984H301.024V153.984H294.112V165.984ZM425.17 197.232L425.758 203.203L425.801 203.199L425.843 203.194L425.17 197.232ZM399.442 197.36L397.336 202.978L397.54 203.055L397.749 203.116L399.442 197.36ZM397.394 139.888H403.394V133.888H397.394V139.888ZM377.17 136.304L371.401 137.952L371.401 137.952L377.17 136.304ZM377.682 112.88L383.471 114.459L383.475 114.442L383.48 114.426L377.682 112.88ZM453.586 110.704L447.68 111.759L447.698 111.86L447.72 111.961L453.586 110.704ZM452.946 133.872L447.104 132.505L447.104 132.505L452.946 133.872ZM433.106 139.888V133.888H427.106V139.888H433.106ZM427.106 194.928C427.106 193.537 427.622 192.431 428.155 191.709C428.642 191.049 429.145 190.695 429.358 190.558C429.75 190.305 429.904 190.314 429.449 190.446C428.63 190.684 427.055 190.981 424.497 191.27L425.843 203.194C428.576 202.886 430.97 202.5 432.795 201.97C433.664 201.718 434.81 201.321 435.863 200.642C436.73 200.083 439.106 198.288 439.106 194.928H427.106ZM424.583 191.261C419.575 191.753 414.523 192 409.426 192V204C414.911 204 420.355 203.735 425.758 203.203L424.583 191.261ZM409.426 192C406.889 192 404.897 191.948 403.41 191.852C402.668 191.805 402.099 191.749 401.679 191.693C401.229 191.633 401.085 191.589 401.135 191.604L397.749 203.116C399.164 203.532 400.935 203.718 402.643 203.828C404.484 203.946 406.758 204 409.426 204V192ZM401.549 191.742C401.485 191.718 401.971 191.88 402.496 192.503C403.111 193.233 403.394 194.14 403.394 194.928H391.394C391.394 196.825 392.019 198.692 393.317 200.233C394.525 201.667 396.034 202.49 397.336 202.978L401.549 191.742ZM403.394 194.928V139.888H391.394V194.928H403.394ZM397.394 133.888H379.602V145.888H397.394V133.888ZM379.602 133.888C380.726 133.888 381.66 134.268 382.306 134.709C382.89 135.108 383.179 135.51 383.255 135.623C383.375 135.8 383.213 135.612 382.939 134.656L371.401 137.952C371.811 139.385 372.395 140.99 373.325 142.361C374.22 143.679 376.24 145.888 379.602 145.888V133.888ZM382.939 134.656C382.491 133.085 382.146 130.217 382.146 125.68H370.146C370.146 130.53 370.485 134.744 371.401 137.952L382.939 134.656ZM382.146 125.68C382.146 121.318 382.615 117.598 383.471 114.459L371.894 111.301C370.702 115.672 370.146 120.484 370.146 125.68H382.146ZM383.48 114.426C383.685 113.656 383.883 113.078 384.056 112.659C384.142 112.452 384.216 112.3 384.272 112.194C384.301 112.141 384.323 112.102 384.339 112.076C384.347 112.063 384.353 112.053 384.358 112.047C384.362 112.04 384.364 112.037 384.364 112.037C384.364 112.037 384.362 112.041 384.356 112.047C384.351 112.054 384.344 112.064 384.333 112.077C384.312 112.102 384.278 112.14 384.229 112.188C384.133 112.283 383.974 112.423 383.742 112.568C383.234 112.886 382.546 113.12 381.778 113.12V101.12C378.302 101.12 375.93 103.191 374.585 105.083C373.297 106.894 372.473 109.13 371.885 111.334L383.48 114.426ZM381.778 113.12H451.026V101.12H381.778V113.12ZM451.026 113.12C450.37 113.12 449.646 112.955 448.975 112.579C448.331 112.219 447.943 111.781 447.744 111.503C447.421 111.052 447.533 110.938 447.68 111.759L459.493 109.649C459.213 108.08 458.685 106.175 457.509 104.529C456.146 102.621 453.91 101.12 451.026 101.12V113.12ZM447.72 111.961C448.098 113.726 448.354 116.68 448.354 121.072H460.354C460.354 116.419 460.099 112.461 459.453 109.447L447.72 111.961ZM448.354 121.072C448.354 125.179 447.928 128.984 447.104 132.505L458.788 135.239C459.842 130.739 460.354 126.011 460.354 121.072H448.354ZM447.104 132.505C446.911 133.331 446.721 133.962 446.549 134.428C446.373 134.906 446.249 135.117 446.225 135.156C446.193 135.205 446.367 134.908 446.847 134.576C447.395 134.198 448.185 133.888 449.106 133.888V145.888C452.818 145.888 455.152 143.473 456.34 141.612C457.517 139.767 458.26 137.496 458.788 135.239L447.104 132.505ZM449.106 133.888H433.106V145.888H449.106V133.888ZM427.106 139.888V194.928H439.106V139.888H427.106ZM555.983 192.624L552.435 187.786L552.435 187.786L555.983 192.624ZM545.231 197.36L546.764 203.161L546.801 203.151L546.837 203.141L545.231 197.36ZM493.135 193.392L490.388 198.726L490.388 198.726L493.135 193.392ZM490.959 174.32L496.757 175.866L496.76 175.854L496.763 175.842L490.959 174.32ZM506.447 169.968L508.388 164.29L508.388 164.29L506.447 169.968ZM528.335 172.4L531.664 177.392L531.802 177.3L531.935 177.2L528.335 172.4ZM527.055 165.616L524.003 170.782L524.092 170.834L524.182 170.883L527.055 165.616ZM520.015 162.8L518.275 168.542L518.356 168.566L518.437 168.589L520.015 162.8ZM510.799 159.216L508.231 164.638L508.258 164.651L508.285 164.664L510.799 159.216ZM501.711 154.096L505.04 149.104L505.04 149.104L501.711 154.096ZM494.671 146.16L489.384 148.997L489.399 149.024L489.414 149.052L494.671 146.16ZM547.663 107.504L546.597 113.409L546.637 113.416L546.677 113.422L547.663 107.504ZM560.591 111.088L557.693 116.341L557.799 116.4L557.908 116.455L560.591 111.088ZM561.231 129.264L555.693 126.956L555.676 126.996L555.66 127.036L561.231 129.264ZM551.887 135.792L549.474 141.285L549.544 141.316L549.616 141.345L551.887 135.792ZM530.255 133.104L527.572 127.737L527.501 127.773L527.432 127.81L530.255 133.104ZM531.151 139.76L528.468 145.127L528.567 145.176L528.669 145.222L531.151 139.76ZM538.063 142.192L536.439 147.968L536.544 147.997L536.65 148.023L538.063 142.192ZM547.151 145.52L544.583 150.942L544.668 150.983L544.754 151.02L547.151 145.52ZM556.367 150.768L552.838 155.62L552.887 155.656L552.937 155.69L556.367 150.768ZM563.407 159.216L568.749 156.483L568.749 156.483L563.407 159.216ZM562.255 185.968L567.324 189.178L567.326 189.176L562.255 185.968ZM552.435 187.786C550.678 189.074 547.853 190.405 543.625 191.579L546.837 203.141C551.826 201.755 556.169 199.929 559.532 197.462L552.435 187.786ZM543.699 191.559C539.871 192.57 534.554 193.152 527.567 193.152V205.152C535.087 205.152 541.546 204.539 546.764 203.161L543.699 191.559ZM527.567 193.152C520.733 193.152 514.272 192.582 508.174 191.459L506 203.261C512.874 204.527 520.066 205.152 527.567 205.152V193.152ZM508.174 191.459C501.783 190.282 497.869 189.081 495.883 188.058L490.388 198.726C494.034 200.604 499.421 202.049 506 203.261L508.174 191.459ZM495.883 188.058C495.343 187.78 494.94 187.539 494.65 187.343C494.355 187.143 494.23 187.025 494.21 187.005C494.186 186.982 494.348 187.134 494.525 187.484C494.717 187.861 494.911 188.442 494.911 189.168H482.911C482.911 192.047 484.411 194.177 485.725 195.491C487.048 196.814 488.713 197.863 490.388 198.726L495.883 188.058ZM494.911 189.168C494.911 184.964 495.511 180.536 496.757 175.866L485.162 172.774C483.677 178.344 482.911 183.814 482.911 189.168H494.911ZM496.763 175.842C497.39 173.453 497.953 172.181 498.292 171.636C498.45 171.383 498.4 171.549 498.045 171.814C497.62 172.13 496.845 172.512 495.823 172.512V160.512C491.747 160.512 489.296 163.383 488.107 165.292C486.824 167.35 485.894 169.981 485.156 172.798L496.763 175.842ZM495.823 172.512C495.461 172.512 495.184 172.478 495.074 172.463C494.937 172.445 494.834 172.426 494.781 172.415C494.676 172.395 494.617 172.38 494.633 172.384C494.659 172.39 494.762 172.418 494.973 172.48C495.383 172.602 496.01 172.799 496.879 173.082C498.607 173.644 501.144 174.496 504.507 175.646L508.388 164.29C505.009 163.136 502.405 162.26 500.591 161.67C499.69 161.377 498.947 161.142 498.386 160.976C498.112 160.894 497.829 160.814 497.569 160.748C497.443 160.716 497.266 160.674 497.069 160.636C496.986 160.619 496.465 160.512 495.823 160.512V172.512ZM504.507 175.646C511.346 177.983 517.215 179.424 521.679 179.424V167.424C519.317 167.424 515.032 166.561 508.388 164.29L504.507 175.646ZM521.679 179.424C523.552 179.424 525.292 179.333 526.816 179.098C528.191 178.887 530.049 178.469 531.664 177.392L525.007 167.408C525.362 167.171 525.592 167.109 525.537 167.127C525.499 167.138 525.332 167.185 524.991 167.238C524.296 167.345 523.22 167.424 521.679 167.424V179.424ZM531.935 177.2C534.584 175.214 535.871 172.307 535.871 169.2H523.871C523.871 169.122 523.89 168.821 524.078 168.428C524.273 168.022 524.541 167.746 524.735 167.6L531.935 177.2ZM535.871 169.2C535.871 164.563 532.556 161.782 529.928 160.349L524.182 170.883C524.677 171.153 524.643 171.234 524.449 170.987C524.339 170.846 524.185 170.609 524.062 170.274C523.936 169.931 523.871 169.562 523.871 169.2H535.871ZM530.108 160.45C527.644 158.994 524.764 157.876 521.594 157.011L518.437 168.589C520.898 169.26 522.712 170.019 524.003 170.782L530.108 160.45ZM521.755 157.058C519.259 156.301 516.449 155.215 513.314 153.768L508.285 164.664C511.806 166.289 515.14 167.592 518.275 168.542L521.755 157.058ZM513.368 153.794C510.373 152.375 507.599 150.81 505.04 149.104L498.383 159.088C501.456 161.137 504.74 162.985 508.231 164.638L513.368 153.794ZM505.04 149.104C503.14 147.837 501.412 145.965 499.929 143.268L489.414 149.052C491.686 153.182 494.651 156.6 498.383 159.088L505.04 149.104ZM499.958 143.323C498.602 140.795 497.855 137.822 497.855 134.256H485.855C485.855 139.565 486.986 144.527 489.384 148.997L499.958 143.323ZM497.855 134.256C497.855 126.015 500.264 120.831 504.188 117.543C508.316 114.085 515.16 111.84 525.775 111.84V99.84C513.777 99.84 503.661 102.331 496.482 108.345C489.1 114.529 485.855 123.553 485.855 134.256H497.855ZM525.775 111.84C533.982 111.84 540.903 112.38 546.597 113.409L548.729 101.599C542.135 100.409 534.465 99.84 525.775 99.84V111.84ZM546.677 113.422C552.761 114.436 556.184 115.509 557.693 116.341L563.49 105.835C560.05 103.936 554.854 102.62 548.65 101.586L546.677 113.422ZM557.908 116.455C558.376 116.689 558.712 116.886 558.943 117.04C559.179 117.198 559.252 117.274 559.229 117.251C559.208 117.23 559.018 117.038 558.825 116.651C558.618 116.238 558.431 115.645 558.431 114.928H570.431C570.431 112.135 569.008 110.059 567.714 108.765C566.432 107.484 564.837 106.503 563.275 105.721L557.908 116.455ZM558.431 114.928C558.431 118.402 557.595 122.391 555.693 126.956L566.77 131.572C569.134 125.897 570.431 120.329 570.431 114.928H558.431ZM555.66 127.036C554.723 129.38 553.96 130.696 553.468 131.324C553.235 131.622 553.21 131.573 553.443 131.422C553.717 131.245 554.336 130.944 555.215 130.944V142.944C558.974 142.944 561.511 140.515 562.915 138.724C564.428 136.792 565.692 134.268 566.802 131.492L555.66 127.036ZM555.215 130.944C555.465 130.944 555.665 130.961 555.797 130.975C555.933 130.99 556.042 131.008 556.114 131.021C556.254 131.046 556.34 131.069 556.351 131.072C556.37 131.077 556.295 131.057 556.09 130.986C555.688 130.847 555.058 130.606 554.159 130.239L549.616 141.345C550.594 141.746 551.458 142.081 552.165 142.326C552.514 142.447 552.898 142.571 553.28 142.672C553.512 142.734 554.292 142.944 555.215 142.944V130.944ZM554.301 130.299C548.334 127.677 542.758 126.08 537.807 126.08V138.08C540.366 138.08 544.177 138.958 549.474 141.285L554.301 130.299ZM537.807 126.08C535.81 126.08 533.976 126.171 532.361 126.39C530.823 126.599 529.107 126.97 527.572 127.737L532.939 138.471C532.769 138.555 532.995 138.414 533.974 138.282C534.876 138.159 536.135 138.08 537.807 138.08V126.08ZM527.432 127.81C525.994 128.577 524.637 129.718 523.67 131.329C522.704 132.94 522.335 134.674 522.335 136.304H534.335C534.335 136.483 534.287 136.958 533.96 137.503C533.634 138.048 533.237 138.314 533.079 138.398L527.432 127.81ZM522.335 136.304C522.335 141.034 525.765 143.775 528.468 145.127L533.835 134.393C533.365 134.158 533.45 134.106 533.691 134.402C533.826 134.568 533.999 134.831 534.133 135.192C534.27 135.559 534.335 135.942 534.335 136.304H522.335ZM528.669 145.222C530.905 146.239 533.515 147.146 536.439 147.968L539.688 136.416C537.15 135.702 535.153 134.988 533.634 134.298L528.669 145.222ZM536.65 148.023C538.987 148.59 541.627 149.542 544.583 150.942L549.72 140.098C546.191 138.426 542.772 137.16 539.477 136.361L536.65 148.023ZM544.754 151.02C547.699 152.304 550.39 153.839 552.838 155.62L559.896 145.916C556.713 143.601 553.259 141.637 549.549 140.02L544.754 151.02ZM552.937 155.69C554.799 156.988 556.547 158.98 558.066 161.949L568.749 156.483C566.513 152.113 563.568 148.473 559.798 145.846L552.937 155.69ZM558.066 161.949C559.439 164.632 560.223 167.932 560.223 172.016H572.223C572.223 166.372 571.13 161.138 568.749 156.483L558.066 161.949ZM560.223 172.016C560.223 176.042 559.201 179.573 557.185 182.76L567.326 189.176C570.6 184 572.223 178.23 572.223 172.016H560.223ZM557.186 182.758C555.985 184.655 554.42 186.33 552.435 187.786L559.532 197.462C562.666 195.163 565.283 192.401 567.324 189.178L557.186 182.758Z" fill="white" mask="url(#path-10-outside-1_1_2)"/>
<mask id="path-12-outside-2_1_2" maskUnits="userSpaceOnUse" x="86.427" y="503.09" width="528" height="107" fill="black">
<rect fill="white" x="86.427" y="503.09" width="528" height="107"/>
<path d="M158.584 601.194C155.171 601.962 151.672 602.474 148.088 602.73C144.59 603.071 141.134 603.242 137.72 603.242C134.392 603.242 131.79 603.157 129.912 602.986C128.12 602.815 125.731 602.389 122.744 601.706C119.758 601.023 117.027 600.085 114.552 598.89C112.078 597.695 109.432 595.946 106.616 593.642C103.886 591.338 101.582 588.607 99.7043 585.45C95.3523 578.111 93.1763 568.639 93.1763 557.034C93.1763 549.269 94.371 542.399 96.7603 536.426C99.235 530.453 102.179 525.845 105.592 522.602C109.091 519.359 113.059 516.757 117.496 514.794C124.664 511.551 131.875 509.93 139.128 509.93C149.539 509.93 157.006 510.783 161.528 512.49C163.576 513.258 165.411 514.453 167.032 516.074C168.654 517.695 169.464 520.042 169.464 523.114C169.464 526.186 168.696 530.069 167.16 534.762C165.71 539.455 163.576 541.802 160.76 541.802C159.907 541.802 156.75 541.119 151.288 539.754C145.827 538.389 142.115 537.706 140.152 537.706C137.166 537.706 134.606 539.37 132.472 542.698C130.424 546.026 129.4 550.762 129.4 556.906C129.4 563.05 130.296 567.829 132.088 571.242C133.966 574.655 136.398 576.362 139.384 576.362C141.518 576.362 145.358 575.509 150.904 573.802C156.536 572.01 159.822 571.114 160.76 571.114C163.406 571.114 165.454 573.546 166.904 578.41C168.44 583.274 169.208 587.199 169.208 590.186C169.208 593.173 168.27 595.562 166.392 597.354C164.6 599.061 161.998 600.341 158.584 601.194ZM271.284 595.562C271.114 598.037 269.791 599.743 267.316 600.682C264.927 601.621 260.575 602.09 254.26 602.09C247.946 602.09 242.655 601.535 238.388 600.426C234.207 599.231 232.116 597.738 232.116 595.946C232.116 593.898 235.914 580.842 243.508 556.778C251.103 532.629 255.455 518.719 256.564 515.05C256.991 513.941 260.404 513.045 266.804 512.362C273.29 511.594 280.202 511.21 287.54 511.21C294.964 511.21 299.06 512.49 299.828 515.05C315.956 568.639 324.02 595.861 324.02 596.714C324.02 597.567 323.508 598.421 322.484 599.274C320.095 601.151 315.359 602.09 308.276 602.09C293.172 602.09 285.45 600.298 285.108 596.714L284.212 588.394H271.924L271.284 595.562ZM281.524 564.074L279.604 541.034H276.788L274.612 564.074H281.524ZM384.116 520.298C384.116 519.274 385.226 518.079 387.444 516.714C389.663 515.263 392.778 513.983 396.788 512.874C400.884 511.765 405.322 511.21 410.1 511.21C414.879 511.21 418.378 511.893 420.596 513.258C422.815 514.623 424.01 516.117 424.18 517.738L428.66 564.33H430.452L434.42 518.89C434.676 516.501 437.578 514.623 443.124 513.258C448.671 511.893 453.834 511.21 458.612 511.21C463.391 511.21 466.932 511.637 469.236 512.49C471.54 513.258 472.991 514.069 473.588 514.922C474.271 515.775 474.612 516.586 474.612 517.354C474.612 518.037 473.972 520.042 472.692 523.37C471.498 526.613 470.218 530.111 468.852 533.866C464.33 545.813 456.692 567.231 445.94 598.122C445.002 600.767 437.663 602.09 423.924 602.09C419.658 602.09 416.842 601.791 415.476 601.194C414.111 600.597 413.172 599.573 412.66 598.122C407.626 583.615 401.61 567.146 394.612 548.714C387.615 530.282 384.116 520.81 384.116 520.298ZM603.352 602.09H549.08C544.899 602.09 542.083 601.791 540.632 601.194C539.182 600.597 538.456 599.658 538.456 598.378V517.354C538.456 515.135 539.438 513.557 541.4 512.618C543.448 511.679 547.075 511.21 552.28 511.21H603.736C605.528 511.21 606.424 514.197 606.424 520.17C606.424 526.058 606.04 530.581 605.272 533.738C604.504 536.81 603.48 538.346 602.2 538.346C596.654 538.346 587.31 537.791 574.168 536.682V545.258C586.798 544.746 595.032 544.49 598.872 544.49C601.176 544.49 602.328 547.178 602.328 552.554C602.328 557.93 601.859 562.026 600.92 564.842C600.067 567.573 598.872 568.938 597.336 568.938L574.168 568.426V576.618C589.016 575.509 599.256 574.954 604.888 574.954C606.68 574.954 607.576 577.941 607.576 583.914C607.576 589.887 607.192 594.41 606.424 597.482C605.656 600.554 604.632 602.09 603.352 602.09Z"/>
</mask>
<path d="M158.584 601.194C155.171 601.962 151.672 602.474 148.088 602.73C144.59 603.071 141.134 603.242 137.72 603.242C134.392 603.242 131.79 603.157 129.912 602.986C128.12 602.815 125.731 602.389 122.744 601.706C119.758 601.023 117.027 600.085 114.552 598.89C112.078 597.695 109.432 595.946 106.616 593.642C103.886 591.338 101.582 588.607 99.7043 585.45C95.3523 578.111 93.1763 568.639 93.1763 557.034C93.1763 549.269 94.371 542.399 96.7603 536.426C99.235 530.453 102.179 525.845 105.592 522.602C109.091 519.359 113.059 516.757 117.496 514.794C124.664 511.551 131.875 509.93 139.128 509.93C149.539 509.93 157.006 510.783 161.528 512.49C163.576 513.258 165.411 514.453 167.032 516.074C168.654 517.695 169.464 520.042 169.464 523.114C169.464 526.186 168.696 530.069 167.16 534.762C165.71 539.455 163.576 541.802 160.76 541.802C159.907 541.802 156.75 541.119 151.288 539.754C145.827 538.389 142.115 537.706 140.152 537.706C137.166 537.706 134.606 539.37 132.472 542.698C130.424 546.026 129.4 550.762 129.4 556.906C129.4 563.05 130.296 567.829 132.088 571.242C133.966 574.655 136.398 576.362 139.384 576.362C141.518 576.362 145.358 575.509 150.904 573.802C156.536 572.01 159.822 571.114 160.76 571.114C163.406 571.114 165.454 573.546 166.904 578.41C168.44 583.274 169.208 587.199 169.208 590.186C169.208 593.173 168.27 595.562 166.392 597.354C164.6 599.061 161.998 600.341 158.584 601.194ZM271.284 595.562C271.114 598.037 269.791 599.743 267.316 600.682C264.927 601.621 260.575 602.09 254.26 602.09C247.946 602.09 242.655 601.535 238.388 600.426C234.207 599.231 232.116 597.738 232.116 595.946C232.116 593.898 235.914 580.842 243.508 556.778C251.103 532.629 255.455 518.719 256.564 515.05C256.991 513.941 260.404 513.045 266.804 512.362C273.29 511.594 280.202 511.21 287.54 511.21C294.964 511.21 299.06 512.49 299.828 515.05C315.956 568.639 324.02 595.861 324.02 596.714C324.02 597.567 323.508 598.421 322.484 599.274C320.095 601.151 315.359 602.09 308.276 602.09C293.172 602.09 285.45 600.298 285.108 596.714L284.212 588.394H271.924L271.284 595.562ZM281.524 564.074L279.604 541.034H276.788L274.612 564.074H281.524ZM384.116 520.298C384.116 519.274 385.226 518.079 387.444 516.714C389.663 515.263 392.778 513.983 396.788 512.874C400.884 511.765 405.322 511.21 410.1 511.21C414.879 511.21 418.378 511.893 420.596 513.258C422.815 514.623 424.01 516.117 424.18 517.738L428.66 564.33H430.452L434.42 518.89C434.676 516.501 437.578 514.623 443.124 513.258C448.671 511.893 453.834 511.21 458.612 511.21C463.391 511.21 466.932 511.637 469.236 512.49C471.54 513.258 472.991 514.069 473.588 514.922C474.271 515.775 474.612 516.586 474.612 517.354C474.612 518.037 473.972 520.042 472.692 523.37C471.498 526.613 470.218 530.111 468.852 533.866C464.33 545.813 456.692 567.231 445.94 598.122C445.002 600.767 437.663 602.09 423.924 602.09C419.658 602.09 416.842 601.791 415.476 601.194C414.111 600.597 413.172 599.573 412.66 598.122C407.626 583.615 401.61 567.146 394.612 548.714C387.615 530.282 384.116 520.81 384.116 520.298ZM603.352 602.09H549.08C544.899 602.09 542.083 601.791 540.632 601.194C539.182 600.597 538.456 599.658 538.456 598.378V517.354C538.456 515.135 539.438 513.557 541.4 512.618C543.448 511.679 547.075 511.21 552.28 511.21H603.736C605.528 511.21 606.424 514.197 606.424 520.17C606.424 526.058 606.04 530.581 605.272 533.738C604.504 536.81 603.48 538.346 602.2 538.346C596.654 538.346 587.31 537.791 574.168 536.682V545.258C586.798 544.746 595.032 544.49 598.872 544.49C601.176 544.49 602.328 547.178 602.328 552.554C602.328 557.93 601.859 562.026 600.92 564.842C600.067 567.573 598.872 568.938 597.336 568.938L574.168 568.426V576.618C589.016 575.509 599.256 574.954 604.888 574.954C606.68 574.954 607.576 577.941 607.576 583.914C607.576 589.887 607.192 594.41 606.424 597.482C605.656 600.554 604.632 602.09 603.352 602.09Z" fill="black"/>
<path d="M158.584 601.194L159.901 607.048L159.971 607.032L160.04 607.015L158.584 601.194ZM148.088 602.73L147.661 596.745L147.583 596.751L147.506 596.758L148.088 602.73ZM129.912 602.986L129.343 608.959L129.356 608.96L129.369 608.961L129.912 602.986ZM122.744 601.706L121.407 607.555L122.744 601.706ZM114.552 598.89L111.944 604.293L111.944 604.293L114.552 598.89ZM106.616 593.642L102.747 598.228L102.782 598.257L102.817 598.286L106.616 593.642ZM99.7043 585.45L94.5436 588.51L94.5471 588.516L99.7043 585.45ZM96.7603 536.426L91.2172 534.129L91.2031 534.163L91.1895 534.197L96.7603 536.426ZM105.592 522.602L101.514 518.201L101.487 518.226L101.46 518.252L105.592 522.602ZM117.496 514.794L119.923 520.281L119.946 520.271L119.969 520.26L117.496 514.794ZM161.528 512.49L159.41 518.103L159.422 518.108L161.528 512.49ZM167.032 516.074L171.275 511.831L171.275 511.831L167.032 516.074ZM167.16 534.762L161.458 532.896L161.443 532.943L161.428 532.99L167.16 534.762ZM132.472 542.698L127.421 539.46L127.391 539.506L127.362 539.553L132.472 542.698ZM132.088 571.242L126.776 574.031L126.803 574.082L126.831 574.133L132.088 571.242ZM150.904 573.802L152.669 579.537L152.696 579.528L152.724 579.519L150.904 573.802ZM166.904 578.41L161.155 580.125L161.168 580.171L161.183 580.217L166.904 578.41ZM166.392 597.354L170.53 601.699L170.535 601.694L166.392 597.354ZM157.267 595.34C154.155 596.041 150.954 596.51 147.661 596.745L148.516 608.715C152.391 608.438 156.187 607.883 159.901 607.048L157.267 595.34ZM147.506 596.758C144.195 597.081 140.933 597.242 137.72 597.242V609.242C141.334 609.242 144.984 609.061 148.671 608.701L147.506 596.758ZM137.72 597.242C134.459 597.242 132.066 597.157 130.456 597.01L129.369 608.961C131.513 609.156 134.325 609.242 137.72 609.242V597.242ZM130.481 597.013C129.065 596.878 126.964 596.516 124.081 595.857L121.407 607.555C124.498 608.261 127.176 608.752 129.343 608.959L130.481 597.013ZM124.081 595.857C121.484 595.263 119.186 594.464 117.161 593.487L111.944 604.293C114.868 605.705 118.031 606.783 121.407 607.555L124.081 595.857ZM117.161 593.487C115.223 592.551 112.976 591.093 110.416 588.998L102.817 598.286C105.888 600.799 108.932 602.839 111.944 604.293L117.161 593.487ZM110.486 589.056C108.28 587.195 106.407 584.982 104.862 582.383L94.5471 588.516C96.7564 592.232 99.4911 595.48 102.747 598.228L110.486 589.056ZM104.865 582.389C101.226 576.253 99.1763 567.936 99.1763 557.034H87.1763C87.1763 569.343 89.4788 579.97 94.5436 588.51L104.865 582.389ZM99.1763 557.034C99.1763 549.878 100.277 543.789 102.331 538.654L91.1895 534.197C88.4646 541.01 87.1763 548.659 87.1763 557.034H99.1763ZM102.303 538.722C104.569 533.253 107.103 529.443 109.725 526.952L101.46 518.252C97.2555 522.246 93.9006 527.652 91.2172 534.129L102.303 538.722ZM109.671 527.002C112.675 524.219 116.082 521.98 119.923 520.281L115.069 509.307C110.036 511.533 105.507 514.5 101.514 518.201L109.671 527.002ZM119.969 520.26C126.427 517.339 132.798 515.93 139.128 515.93V503.93C130.952 503.93 122.902 505.763 115.023 509.327L119.969 520.26ZM139.128 515.93C149.456 515.93 155.978 516.808 159.41 518.103L163.647 506.876C158.033 504.758 149.622 503.93 139.128 503.93V515.93ZM159.422 518.108C160.629 518.561 161.744 519.271 162.79 520.316L171.275 511.831C169.078 509.634 166.524 507.955 163.635 506.872L159.422 518.108ZM162.79 520.316C162.945 520.472 163.464 521.075 163.464 523.114H175.464C175.464 519.008 174.363 514.919 171.275 511.831L162.79 520.316ZM163.464 523.114C163.464 525.286 162.901 528.486 161.458 532.896L172.863 536.628C174.491 531.651 175.464 527.085 175.464 523.114H163.464ZM161.428 532.99C160.834 534.912 160.272 535.742 160.033 536.006C159.944 536.104 159.982 536.031 160.174 535.94C160.382 535.842 160.601 535.802 160.76 535.802V547.802C167.896 547.802 171.318 541.627 172.893 536.534L161.428 532.99ZM160.76 535.802C161.105 535.802 161.193 535.844 160.695 535.759C160.316 535.694 159.767 535.587 159.02 535.425C157.534 535.104 155.45 534.61 152.744 533.933L149.833 545.575C152.588 546.263 154.814 546.793 156.484 547.154C157.849 547.449 159.553 547.802 160.76 547.802V535.802ZM152.744 533.933C147.382 532.593 142.969 531.706 140.152 531.706V543.706C141.261 543.706 144.272 544.184 149.833 545.575L152.744 533.933ZM140.152 531.706C134.477 531.706 130.258 535.034 127.421 539.46L137.524 545.936C138.953 543.706 139.854 543.706 140.152 543.706V531.706ZM127.362 539.553C124.489 544.222 123.4 550.232 123.4 556.906H135.4C135.4 551.292 136.36 547.829 137.582 545.842L127.362 539.553ZM123.4 556.906C123.4 563.504 124.341 569.393 126.776 574.031L137.401 568.453C136.252 566.264 135.4 562.596 135.4 556.906H123.4ZM126.831 574.133C129.391 578.788 133.534 582.362 139.384 582.362V570.362C139.118 570.362 138.968 570.311 138.767 570.171C138.497 569.981 137.975 569.494 137.346 568.35L126.831 574.133ZM139.384 582.362C142.547 582.362 147.211 581.216 152.669 579.537L149.14 568.067C143.505 569.801 140.488 570.362 139.384 570.362V582.362ZM152.724 579.519C155.509 578.633 157.647 577.99 159.171 577.574C159.937 577.366 160.49 577.23 160.861 577.151C161.369 577.044 161.211 577.114 160.76 577.114V565.114C159.841 565.114 158.92 565.296 158.371 565.412C157.687 565.558 156.89 565.758 156.014 565.997C154.253 566.477 151.932 567.178 149.085 568.084L152.724 579.519ZM160.76 577.114C160.462 577.114 160.139 577.036 159.872 576.897C159.632 576.773 159.586 576.678 159.691 576.803C159.962 577.125 160.54 578.065 161.155 580.125L172.654 576.695C171.818 573.891 170.646 571.183 168.87 569.073C166.959 566.804 164.212 565.114 160.76 565.114V577.114ZM161.183 580.217C162.645 584.847 163.208 588.095 163.208 590.186H175.208C175.208 586.303 174.235 581.7 172.626 576.603L161.183 580.217ZM163.208 590.186C163.208 591.803 162.759 592.528 162.249 593.014L170.535 601.694C173.781 598.596 175.208 594.542 175.208 590.186H163.208ZM162.254 593.009C161.465 593.761 159.936 594.671 157.129 595.373L160.04 607.015C164.059 606.01 167.736 604.36 170.53 601.699L162.254 593.009ZM271.284 595.562L265.308 595.028L265.303 595.089L265.299 595.149L271.284 595.562ZM267.316 600.682L265.188 595.072L265.155 595.084L265.122 595.097L267.316 600.682ZM238.388 600.426L236.74 606.195L236.809 606.215L236.879 606.233L238.388 600.426ZM243.508 556.778L249.23 558.584L249.232 558.578L243.508 556.778ZM256.564 515.05L250.964 512.896L250.885 513.102L250.821 513.314L256.564 515.05ZM266.804 512.362L267.441 518.328L267.475 518.324L267.51 518.32L266.804 512.362ZM299.828 515.05L294.081 516.774L294.083 516.779L299.828 515.05ZM322.484 599.274L326.191 603.992L326.259 603.938L326.325 603.883L322.484 599.274ZM285.108 596.714L291.081 596.145L291.078 596.108L291.074 596.071L285.108 596.714ZM284.212 588.394L290.178 587.751L289.601 582.394H284.212V588.394ZM271.924 588.394V582.394H266.436L265.948 587.86L271.924 588.394ZM281.524 564.074V570.074H288.045L287.504 563.576L281.524 564.074ZM279.604 541.034L285.584 540.536L285.125 535.034H279.604V541.034ZM276.788 541.034V535.034H271.328L270.815 540.47L276.788 541.034ZM274.612 564.074L268.639 563.51L268.019 570.074H274.612V564.074ZM265.299 595.149C265.289 595.283 265.272 595.307 265.29 595.256C265.299 595.231 265.314 595.195 265.338 595.151C265.362 595.107 265.39 595.063 265.422 595.022C265.453 594.982 265.482 594.951 265.504 594.931C265.525 594.911 265.535 594.905 265.527 594.911C265.509 594.923 265.411 594.987 265.188 595.072L269.444 606.292C271.482 605.519 273.431 604.278 274.907 602.373C276.401 600.445 277.115 598.217 277.27 595.975L265.299 595.149ZM265.122 595.097C263.908 595.574 260.609 596.09 254.26 596.09V608.09C260.541 608.09 265.946 607.667 269.51 606.266L265.122 595.097ZM254.26 596.09C248.256 596.09 243.51 595.558 239.898 594.619L236.879 606.233C241.8 607.512 247.636 608.09 254.26 608.09V596.09ZM240.037 594.657C239.172 594.41 238.506 594.173 238.008 593.959C237.5 593.741 237.251 593.584 237.172 593.527C237.086 593.466 237.309 593.602 237.57 594.013C237.866 594.478 238.116 595.154 238.116 595.946H226.116C226.116 599.528 228.303 601.939 230.197 603.292C232.056 604.62 234.381 605.521 236.74 606.195L240.037 594.657ZM238.116 595.946C238.116 596.337 238.062 596.424 238.18 595.826C238.271 595.367 238.422 594.704 238.647 593.809C239.096 592.026 239.784 589.531 240.726 586.294C242.605 579.831 245.437 570.602 249.23 558.584L237.787 554.972C233.985 567.017 231.121 576.348 229.203 582.942C228.246 586.233 227.51 588.89 227.009 590.883C226.76 591.876 226.555 592.757 226.408 593.498C226.289 594.1 226.116 595.043 226.116 595.946H238.116ZM249.232 558.578C256.82 534.45 261.186 520.497 262.308 516.786L250.821 513.314C249.724 516.942 245.386 530.807 237.785 554.978L249.232 558.578ZM262.164 517.204C261.785 518.189 261.213 518.802 260.878 519.104C260.541 519.407 260.275 519.548 260.222 519.576C260.134 519.622 260.314 519.521 260.968 519.349C262.238 519.016 264.339 518.659 267.441 518.328L266.168 506.396C262.87 506.748 260.064 507.18 257.921 507.742C256.868 508.019 255.715 508.392 254.667 508.939C253.842 509.37 251.882 510.509 250.964 512.896L262.164 517.204ZM267.51 518.32C273.735 517.583 280.409 517.21 287.54 517.21V505.21C279.994 505.21 272.845 505.605 266.099 506.403L267.51 518.32ZM287.54 517.21C291.019 517.21 293.195 517.523 294.391 517.897C295.719 518.312 294.552 518.342 294.081 516.774L305.575 513.326C304.337 509.197 300.738 507.308 297.97 506.443C295.07 505.537 291.485 505.21 287.54 505.21V517.21ZM294.083 516.779C302.146 543.572 308.191 563.764 312.219 577.362C314.234 584.163 315.741 589.301 316.742 592.786C317.243 594.533 317.611 595.84 317.851 596.726C317.972 597.174 318.051 597.478 318.095 597.661C318.119 597.758 318.122 597.775 318.115 597.742C318.112 597.727 318.097 597.654 318.081 597.546C318.075 597.505 318.02 597.164 318.02 596.714H330.02C330.02 596.237 329.962 595.856 329.948 595.763C329.924 595.603 329.897 595.465 329.879 595.371C329.84 595.182 329.796 594.991 329.756 594.828C329.675 594.493 329.564 594.072 329.434 593.59C329.17 592.614 328.782 591.237 328.275 589.473C327.26 585.94 325.742 580.763 323.725 573.954C319.689 560.33 313.638 540.117 305.574 513.321L294.083 516.779ZM318.02 596.714C318.02 595.883 318.282 595.256 318.491 594.907C318.677 594.598 318.803 594.532 318.643 594.665L326.325 603.883C327.948 602.531 330.02 600.152 330.02 596.714H318.02ZM318.777 594.556C318.638 594.666 317.904 595.118 315.974 595.5C314.123 595.867 311.589 596.09 308.276 596.09V608.09C312.046 608.09 315.422 607.843 318.307 607.271C321.113 606.715 323.942 605.759 326.191 603.992L318.777 594.556ZM308.276 596.09C300.849 596.09 295.693 595.639 292.513 594.901C290.896 594.526 290.223 594.171 290.077 594.074C290.017 594.034 290.941 594.672 291.081 596.145L279.135 597.283C279.446 600.548 281.464 602.754 283.42 604.058C285.29 605.305 287.556 606.07 289.8 606.591C294.342 607.645 300.6 608.09 308.276 608.09V596.09ZM291.074 596.071L290.178 587.751L278.247 589.036L279.143 597.356L291.074 596.071ZM284.212 582.394H271.924V594.394H284.212V582.394ZM265.948 587.86L265.308 595.028L277.261 596.095L277.901 588.927L265.948 587.86ZM287.504 563.576L285.584 540.536L273.625 541.532L275.545 564.572L287.504 563.576ZM279.604 535.034H276.788V547.034H279.604V535.034ZM270.815 540.47L268.639 563.51L280.586 564.638L282.762 541.598L270.815 540.47ZM274.612 570.074H281.524V558.074H274.612V570.074ZM387.444 516.714L390.589 521.824L390.659 521.781L390.728 521.736L387.444 516.714ZM396.788 512.874L395.22 507.082L395.204 507.087L395.189 507.091L396.788 512.874ZM420.596 513.258L417.452 518.368L417.452 518.368L420.596 513.258ZM424.18 517.738L430.153 517.164L430.15 517.137L430.147 517.11L424.18 517.738ZM428.66 564.33L422.688 564.904L423.21 570.33H428.66V564.33ZM430.452 564.33V570.33H435.951L436.43 564.852L430.452 564.33ZM434.42 518.89L428.454 518.251L428.448 518.309L428.443 518.368L434.42 518.89ZM443.124 513.258L444.558 519.084L444.558 519.084L443.124 513.258ZM469.236 512.49L467.152 518.116L467.245 518.151L467.339 518.182L469.236 512.49ZM473.588 514.922L468.673 518.363L468.783 518.52L468.903 518.67L473.588 514.922ZM472.692 523.37L467.092 521.216L467.077 521.256L467.062 521.296L472.692 523.37ZM468.852 533.866L474.464 535.99L474.478 535.953L474.491 535.916L468.852 533.866ZM445.94 598.122L451.595 600.128L451.601 600.111L451.607 600.094L445.94 598.122ZM415.476 601.194L417.881 595.697L417.881 595.697L415.476 601.194ZM412.66 598.122L406.992 600.089L406.997 600.104L407.002 600.119L412.66 598.122ZM394.612 548.714L400.222 546.584L400.222 546.584L394.612 548.714ZM390.116 520.298C390.116 521.15 389.882 521.799 389.691 522.181C389.596 522.37 389.507 522.505 389.448 522.587C389.389 522.669 389.35 522.711 389.345 522.717C389.342 522.72 389.424 522.633 389.647 522.462C389.864 522.294 390.171 522.081 390.589 521.824L384.3 511.604C382.969 512.423 381.628 513.392 380.552 514.551C379.548 515.631 378.116 517.591 378.116 520.298H390.116ZM390.728 521.736C392.22 520.76 394.675 519.684 398.388 518.657L395.189 507.091C390.88 508.283 387.106 509.766 384.161 511.692L390.728 521.736ZM398.357 518.665C401.882 517.71 405.786 517.21 410.1 517.21V505.21C404.857 505.21 399.887 505.819 395.22 507.082L398.357 518.665ZM410.1 517.21C414.56 517.21 416.68 517.893 417.452 518.368L423.741 508.148C420.075 505.892 415.198 505.21 410.1 505.21V517.21ZM417.452 518.368C417.799 518.581 418.046 518.764 418.216 518.906C418.386 519.048 418.458 519.133 418.471 519.15C418.483 519.164 418.429 519.101 418.365 518.955C418.299 518.803 418.238 518.601 418.213 518.366L430.147 517.11C429.689 512.755 426.592 509.903 423.741 508.148L417.452 518.368ZM418.208 518.312L422.688 564.904L434.633 563.756L430.153 517.164L418.208 518.312ZM428.66 570.33H430.452V558.33H428.66V570.33ZM436.43 564.852L440.398 519.412L428.443 518.368L424.475 563.808L436.43 564.852ZM440.386 519.529C440.248 520.818 439.424 521.131 440.048 520.727C440.691 520.311 442.068 519.697 444.558 519.084L441.69 507.432C438.634 508.184 435.787 509.191 433.529 510.652C431.251 512.126 428.849 514.572 428.454 518.251L440.386 519.529ZM444.558 519.084C449.724 517.812 454.4 517.21 458.612 517.21V505.21C453.267 505.21 447.618 505.973 441.69 507.432L444.558 519.084ZM458.612 517.21C463.221 517.21 465.883 517.646 467.152 518.116L471.32 506.863C467.982 505.627 463.561 505.21 458.612 505.21V517.21ZM467.339 518.182C468.282 518.496 468.841 518.752 469.125 518.912C469.26 518.987 469.267 519.004 469.197 518.947C469.13 518.892 468.914 518.708 468.673 518.363L478.504 511.481C477.467 510.001 476.075 509.049 474.979 508.436C473.814 507.785 472.495 507.252 471.134 506.798L467.339 518.182ZM468.903 518.67C469.087 518.899 468.612 518.421 468.612 517.354H480.612C480.612 514.75 479.455 512.651 478.274 511.174L468.903 518.67ZM468.612 517.354C468.612 516.791 468.714 516.479 468.656 516.724C468.623 516.859 468.552 517.122 468.416 517.546C468.148 518.387 467.715 519.597 467.092 521.216L478.292 525.524C478.95 523.814 479.477 522.358 479.848 521.194C480.033 520.615 480.201 520.04 480.329 519.504C480.431 519.076 480.612 518.258 480.612 517.354H468.612ZM467.062 521.296C465.864 524.547 464.581 528.054 463.214 531.815L474.491 535.916C475.854 532.168 477.131 528.678 478.322 525.444L467.062 521.296ZM463.241 531.742C458.686 543.773 451.025 565.262 440.274 596.15L451.607 600.094C462.36 569.2 469.973 547.852 474.464 535.99L463.241 531.742ZM440.286 596.115C440.833 594.572 441.913 594.222 441.443 594.447C441.1 594.612 440.259 594.906 438.668 595.193C435.528 595.759 430.681 596.09 423.924 596.09V608.09C430.906 608.09 436.598 607.759 440.797 607.003C442.875 606.628 444.904 606.096 446.63 605.268C448.229 604.502 450.578 602.994 451.595 600.128L440.286 596.115ZM423.924 596.09C421.908 596.09 420.366 596.018 419.245 595.899C418.003 595.768 417.7 595.618 417.881 595.697L413.071 606.691C414.618 607.367 416.406 607.665 417.98 607.832C419.674 608.012 421.674 608.09 423.924 608.09V596.09ZM417.881 595.697C417.887 595.699 417.926 595.717 417.985 595.759C418.045 595.801 418.11 595.857 418.171 595.923C418.304 596.068 418.334 596.17 418.318 596.125L407.002 600.119C408.047 603.079 410.129 605.404 413.071 606.691L417.881 595.697ZM418.329 596.155C413.271 581.581 407.234 565.056 400.222 546.584L389.003 550.843C395.985 569.236 401.981 585.649 406.992 600.089L418.329 596.155ZM400.222 546.584C396.725 537.373 394.108 530.417 392.369 525.707C391.497 523.348 390.855 521.577 390.435 520.378C390.222 519.772 390.081 519.353 389.998 519.092C389.955 518.956 389.946 518.919 389.953 518.946C389.956 518.956 389.979 519.042 390.006 519.173C390.01 519.194 390.116 519.67 390.116 520.298H378.116C378.116 520.957 378.23 521.483 378.248 521.571C378.288 521.769 378.332 521.939 378.362 522.052C378.424 522.283 378.496 522.52 378.562 522.727C378.698 523.155 378.885 523.704 379.11 524.346C379.564 525.642 380.234 527.488 381.112 529.865C382.871 534.627 385.503 541.623 389.003 550.843L400.222 546.584ZM540.632 601.194L542.917 595.646L542.917 595.646L540.632 601.194ZM541.4 512.618L538.9 507.163L538.856 507.184L538.812 507.205L541.4 512.618ZM605.272 533.738L611.093 535.193L611.098 535.175L611.102 535.156L605.272 533.738ZM574.168 536.682L574.673 530.703L568.168 530.154V536.682H574.168ZM574.168 545.258H568.168V551.506L574.411 551.253L574.168 545.258ZM600.92 564.842L595.228 562.944L595.21 562.998L595.193 563.052L600.92 564.842ZM597.336 568.938L597.204 574.936L597.27 574.938H597.336V568.938ZM574.168 568.426L574.301 562.427L568.168 562.292V568.426H574.168ZM574.168 576.618H568.168V583.083L574.615 582.601L574.168 576.618ZM603.352 596.09H549.08V608.09H603.352V596.09ZM549.08 596.09C547.112 596.09 545.59 596.019 544.465 595.899C543.247 595.77 542.851 595.619 542.917 595.646L538.348 606.742C539.864 607.366 541.602 607.663 543.2 607.832C544.891 608.012 546.868 608.09 549.08 608.09V596.09ZM542.917 595.646C542.859 595.622 543.294 595.785 543.748 596.373C544.263 597.04 544.456 597.802 544.456 598.378H532.456C532.456 600.234 533.012 602.105 534.253 603.711C535.432 605.237 536.955 606.168 538.348 606.742L542.917 595.646ZM544.456 598.378V517.354H532.456V598.378H544.456ZM544.456 517.354C544.456 517.24 544.469 517.236 544.45 517.311C544.429 517.392 544.381 517.524 544.288 517.673C544.195 517.823 544.092 517.934 544.012 518.002C543.936 518.066 543.913 518.067 543.989 518.031L538.812 507.205C536.977 508.083 535.289 509.421 534.097 511.338C532.909 513.248 532.456 515.344 532.456 517.354H544.456ZM543.9 518.072C544.65 517.729 547.094 517.21 552.28 517.21V505.21C547.056 505.21 542.247 505.63 538.9 507.163L543.9 518.072ZM552.28 517.21H603.736V505.21H552.28V517.21ZM603.736 517.21C603.097 517.21 602.423 517.07 601.787 516.767C601.167 516.472 600.731 516.093 600.453 515.784C599.959 515.235 599.91 514.854 600.005 515.174C600.195 515.807 600.424 517.336 600.424 520.17H612.424C612.424 517.03 612.205 514.079 611.499 511.726C611.147 510.552 610.538 509.052 609.372 507.756C608.051 506.289 606.102 505.21 603.736 505.21V517.21ZM600.424 520.17C600.424 525.899 600.041 529.858 599.442 532.32L611.102 535.156C612.04 531.303 612.424 526.217 612.424 520.17H600.424ZM599.451 532.283C599.305 532.87 599.168 533.292 599.056 533.579C598.94 533.877 598.886 533.941 598.936 533.866C598.981 533.798 599.233 533.433 599.784 533.066C600.398 532.657 601.238 532.346 602.2 532.346V544.346C605.643 544.346 607.825 542.165 608.921 540.522C609.992 538.914 610.644 536.99 611.093 535.193L599.451 532.283ZM602.2 532.346C596.932 532.346 587.812 531.812 574.673 530.703L573.664 542.661C586.808 543.77 596.376 544.346 602.2 544.346V532.346ZM568.168 536.682V545.258H580.168V536.682H568.168ZM574.411 551.253C587.069 550.74 595.177 550.49 598.872 550.49V538.49C594.888 538.49 586.526 538.752 573.925 539.263L574.411 551.253ZM598.872 550.49C598.189 550.49 597.38 550.258 596.701 549.73C596.107 549.268 595.932 548.829 595.949 548.869C595.967 548.909 596.076 549.2 596.173 549.874C596.266 550.529 596.328 551.41 596.328 552.554H608.328C608.328 549.62 608.041 546.62 606.979 544.142C606.421 542.839 605.526 541.391 604.068 540.258C602.525 539.058 600.707 538.49 598.872 538.49V550.49ZM596.328 552.554C596.328 557.719 595.86 561.048 595.228 562.944L606.612 566.739C607.858 563.004 608.328 558.141 608.328 552.554H596.328ZM595.193 563.052C595.054 563.5 594.932 563.787 594.85 563.951C594.766 564.119 594.757 564.091 594.869 563.963C594.988 563.826 595.267 563.552 595.741 563.315C596.238 563.067 596.795 562.938 597.336 562.938V574.938C600.152 574.938 602.39 573.59 603.9 571.865C605.273 570.296 606.099 568.384 606.647 566.631L595.193 563.052ZM597.469 562.939L574.301 562.427L574.036 574.424L597.204 574.936L597.469 562.939ZM568.168 568.426V576.618H580.168V568.426H568.168ZM574.615 582.601C589.479 581.491 599.51 580.954 604.888 580.954V568.954C599.003 568.954 588.553 569.526 573.721 570.635L574.615 582.601ZM604.888 580.954C604.249 580.954 603.575 580.814 602.939 580.511C602.319 580.216 601.883 579.837 601.605 579.528C601.111 578.979 601.062 578.598 601.157 578.918C601.347 579.551 601.576 581.08 601.576 583.914H613.576C613.576 580.774 613.357 577.823 612.651 575.47C612.299 574.296 611.69 572.796 610.524 571.5C609.203 570.033 607.254 568.954 604.888 568.954V580.954ZM601.576 583.914C601.576 589.748 601.19 593.681 600.603 596.027L612.245 598.937C613.195 595.139 613.576 590.027 613.576 583.914H601.576ZM600.603 596.027C600.457 596.614 600.32 597.036 600.208 597.323C600.092 597.621 600.038 597.685 600.088 597.61C600.133 597.542 600.385 597.177 600.936 596.81C601.55 596.401 602.39 596.09 603.352 596.09V608.09C606.795 608.09 608.977 605.909 610.073 604.266C611.144 602.658 611.796 600.734 612.245 598.937L600.603 596.027Z" fill="white" mask="url(#path-12-outside-2_1_2)"/>
</svg>
